# xmcd
#
# Track frame offsets: 
#        150
#        18285
#        34332
#        52500
#        69407
#        88230
#        102300
#        117022
#        134035
#        150225
#
# Disc length: 2378 seconds
#
# Revision: 0
# Processed by: cddbd v1.5.2PL0 Copyright (c) Steve Scherf et al.
# Submitted via: ExactAudioCopy v0.99pb4
#
DISCID=7709480a
DTITLE=Alan Rhody - Boxcars of Memories
DYEAR=2008
DGENRE=Country
TTITLE0=Tryin' To Find A Feelin'
TTITLE1=Ten-Cent Lemonade
TTITLE2=Louise
TTITLE3=Heaven
TTITLE4=The Truth
TTITLE5=Take Back
TTITLE6=Backstroke Up Maiin St.
TTITLE7=Pilgrim's Progress
TTITLE8=That's My Love
TTITLE9=Restless Farewell
EXTD=
EXTT0=
EXTT1=
EXTT2=
EXTT3=
EXTT4=
EXTT5=
EXTT6=
EXTT7=
EXTT8=
EXTT9=
PLAYORDER=
